# xmcd
#
# Track frame offsets:
#	150
#	18083
#	36151
#	51381
#	67752
#	84354
#	103410
#	120261
#	137016
#	154798
#	171304
#	186533
#	202360
#	220410
#
# Disc length: 3086 seconds
#
# Revision: 0
# Processed by: cddbd v1.5PL3 Copyright (c) Steve Scherf et al.
# Submitted via: audiograbber 1.83.01
#
DISCID=cb0c0c0e
DTITLE=Shannon Noll - Thats What I'm Talking About
DYEAR=2003
DGENRE=
TTITLE0=Drive
TTITLE1=New Beginning
TTITLE2=What about me
TTITLE3=Burn
TTITLE4=Sittin' Pretty
TTITLE5=Learn to Fly
TTITLE6=Promisis
TTITLE7=Tune in
TTITLE8=Prove
TTITLE9=Wise
TTITLE10=The way she loves me
TTITLE11=The way that I feel
TTITLE12=Angels Brought Me Here
TTITLE13=With or without you
EXTD=
EXTT0=
EXTT1=
EXTT2=
EXTT3=
EXTT4=
EXTT5=
EXTT6=
EXTT7=
EXTT8=
EXTT9=
EXTT10=
EXTT11=
EXTT12=
EXTT13=
PLAYORDER=
